<svg width="66" height="85" viewBox="0 0 66 85" fill="none" xmlns="http://www.w3.org/2000/svg">
<path d="M0.3 38V36.68L3.86 35.98L7.04 27.12L13.52 7.86H15.98L22.44 26.36L25.9 35.98L29.12 36.68V38H18.8V36.68L22.02 36.06L19.4 27.6L13.84 12.1L8.58 27.54L5.96 36.06L9.84 36.68V38H0.3ZM7.5 28.28L8.06 26.66L14.6 26.84L20.82 26.64L21.26 28.28H7.5Z" fill="white"/>
<path d="M38.42 60.12C38.42 55.5333 39.74 51.8067 42.38 48.94C45.02 46.06 48.38 44.62 52.46 44.62C54.2333 44.62 55.8667 44.8733 57.36 45.38C58.8667 45.8733 60.1333 46.52 61.16 47.32L59.42 49.16C58.7267 48.3333 57.76 47.6733 56.52 47.18C55.28 46.6733 53.9267 46.42 52.46 46.42C49.3267 46.42 46.8333 47.4933 44.98 49.64C43.1267 51.7733 42.2133 55.1133 42.24 59.66C42.2667 64.14 43.2533 67.6333 45.2 70.14C47.16 72.6333 49.88 73.88 53.36 73.88C55.16 73.88 56.7733 73.5067 58.2 72.76C59.64 72.0133 60.7733 70.9533 61.6 69.58L63.18 70.68C62.2867 71.9733 60.94 73.1133 59.14 74.1C57.3533 75.0733 55.2467 75.56 52.82 75.56C48.5667 75.56 45.1 74.2 42.42 71.48C39.7533 68.7467 38.42 64.96 38.42 60.12ZM56.24 63V61.66H65.52V63L63.18 63.7V70.72L59.76 71.72V63.7L56.24 63ZM58.6 48.48L60.08 45.24H61.48V53.88H59.98L58.6 48.48Z" fill="white"/>
<path d="M36.952 58.432C35.224 58.432 33.672 58.096 32.296 57.424C30.952 56.752 29.88 55.808 29.08 54.592C28.28 53.376 27.88 51.952 27.88 50.32C27.88 50.128 27.88 49.952 27.88 49.792C27.88 49.6 27.896 49.408 27.928 49.216C26.392 49.056 24.984 48.736 23.704 48.256C22.456 47.776 21.464 47.12 20.728 46.288C19.992 45.424 19.624 44.368 19.624 43.12C19.624 41.968 19.976 40.88 20.68 39.856C21.384 38.8 22.264 37.824 23.32 36.928C24.408 36 25.544 35.2 26.728 34.528C28.936 33.184 31.096 32.176 33.208 31.504C32.792 30.992 32.456 30.4 32.2 29.728C31.976 29.024 31.864 28.352 31.864 27.712C31.864 26.56 32.28 25.536 33.112 24.64C33.976 23.712 35.08 22.928 36.424 22.288C37.768 21.648 39.192 21.152 40.696 20.8C42.2 20.448 43.592 20.272 44.872 20.272C48.264 20.272 49.96 21.312 49.96 23.392C49.96 24.352 49.592 25.184 48.856 25.888C48.12 26.592 47.304 26.944 46.408 26.944C45.544 26.944 45.112 26.72 45.112 26.272C45.112 25.952 45.32 25.792 45.736 25.792C45.864 25.792 46.024 25.824 46.216 25.888C46.28 25.92 46.392 25.936 46.552 25.936C46.968 25.936 47.368 25.696 47.752 25.216C48.264 24.608 48.52 24.032 48.52 23.488C48.52 22.624 48.024 22 47.032 21.616C46.392 21.392 45.576 21.28 44.584 21.28C43.304 21.28 42.024 21.504 40.744 21.952C39.496 22.368 38.344 22.96 37.288 23.728C36.264 24.464 35.432 25.312 34.792 26.272C34.152 27.232 33.832 28.256 33.832 29.344C33.832 30.112 34.024 30.72 34.408 31.168C35.624 30.816 36.696 30.64 37.624 30.64C39.48 30.64 40.408 31.008 40.408 31.744C40.408 32.16 40.136 32.528 39.592 32.848C39.048 33.136 38.456 33.28 37.816 33.28C36.216 33.28 34.856 32.864 33.736 32.032C32.84 32.288 31.896 32.688 30.904 33.232C29.912 33.776 28.872 34.448 27.784 35.248C26.312 36.336 25.032 37.552 23.944 38.896C22.856 40.208 22.312 41.616 22.312 43.12C22.312 45.968 24.248 47.552 28.12 47.872C28.472 45.6 29.224 43.552 30.376 41.728C31.56 39.904 33.112 38.4 35.032 37.216C36.12 36.544 37.352 36.016 38.728 35.632C40.136 35.216 41.544 34.896 42.952 34.672C44.392 34.416 45.704 34.192 46.888 34C48.456 33.744 49.72 33.456 50.68 33.136C51.64 32.816 52.36 32.48 52.84 32.128C53.192 31.872 53.448 31.584 53.608 31.264C53.8 30.944 53.896 30.656 53.896 30.4C53.896 30.208 53.864 30.032 53.8 29.872C53.736 29.68 53.816 29.584 54.04 29.584C54.264 29.584 54.44 29.728 54.568 30.016C54.696 30.304 54.76 30.576 54.76 30.832C54.76 31.472 54.44 32.16 53.8 32.896C53.096 33.6 52.248 34.128 51.256 34.48C50.264 34.832 49.224 35.104 48.136 35.296C47.048 35.488 45.976 35.712 44.92 35.968C45.528 36.544 45.832 37.408 45.832 38.56C45.832 40.928 44.488 43.2 41.8 45.376C39.944 46.848 37.96 47.872 35.848 48.448C33.768 48.992 31.528 49.264 29.128 49.264C29.096 49.456 29.064 49.664 29.032 49.888C29.032 50.08 29.032 50.272 29.032 50.464C29.032 52.608 29.752 54.352 31.192 55.696C32.664 57.04 34.584 57.712 36.952 57.712C37.752 57.712 38.44 57.44 39.016 56.896C39.592 56.384 39.88 55.792 39.88 55.12C39.88 54.896 39.832 54.672 39.736 54.448C39.704 54.384 39.688 54.304 39.688 54.208C39.688 54.016 39.816 53.92 40.072 53.92C40.424 53.92 40.6 54.336 40.6 55.168C40.6 56.032 40.232 56.784 39.496 57.424C38.76 58.096 37.912 58.432 36.952 58.432ZM37.576 32.512C38.376 32.512 38.84 32.32 38.968 31.936C39 31.616 38.536 31.456 37.576 31.456C36.808 31.456 35.944 31.552 34.984 31.744C35.784 32.256 36.648 32.512 37.576 32.512ZM29.272 47.92C31.352 47.92 33.48 47.584 35.656 46.912C37.864 46.24 39.72 45.216 41.224 43.84C43.24 42.016 44.248 40.144 44.248 38.224C44.248 36.816 43.64 36.112 42.424 36.112C42.072 36.112 41.288 36.256 40.072 36.544C33.896 38.848 30.296 42.64 29.272 47.92Z" fill="white"/>
</svg>
